<svg version="1" xmlns="http://www.w3.org/2000/svg" width="341.333" height="341.333" viewBox="0 0 256.000000 256.000000"><path d="M109 2c-.8.5-2.7 1-4.2 1C93.6 3 66.6 14.7 52 25.8c-8.6 6.6-19 16.7-24 23.5-1.9 2.6-4.7 6.3-6.1 8.2-2.4 3.1-8.7 15.3-12.2 23.5-1.8 4.3-5.3 17.4-6.7 25.4-2.9 17.1.5 37.2 8.5 49.1 9.1 13.6 18.7 21.2 36.6 28.9 5.9 2.5 17.7 3.9 28.5 3.3 18.7-1.1 36.9-9.3 50.7-23.1 11.2-11.1 15.2-17.5 20.1-32 1.8-5 2.4-8.2 1.8-8.8-.6-.6-4.2.1-9.8 2-4.9 1.6-12.7 4.2-17.4 5.7-12.4 3.9-15.5 5.6-15.8 8.5-.7 7.3-4.8 16.5-9.5 21.6-6.3 6.9-9.8 9-19.2 11.4-7.3 1.9-8.2 1.9-14.4.5-12.1-2.9-20.4-9.3-25.8-19.9-3.3-6.5-3.7-7.9-3.7-15.6-.1-7.2.3-9.4 2.6-14.3 7.6-16.3 25.7-25.8 41.2-21.6 11 3 20 9.8 24 18.4 2.1 4.4 2.7 4.7 6.7 3.4 10.1-3 13.6-4.2 15.4-4.9 1.1-.5 5.5-2 9.9-3.5 18.5-6.1 43.2-19.3 61.1-32.5 8.8-6.6 26-23.2 30.9-29.9l2.5-3.4-2.1-3.1c-3.2-4.6-14-14.8-22.2-21C189.1 14.5 161.8 3 150 3c-1.6 0-3.2-.5-3.5-1C145.7.7 111 .7 109 2zM194.5 115.7c-3.9.6-4.3 1.1-5.4 6.3-.8 4-5.6 18.3-8 23.5-1.9 4.5-9.4 19.1-10.5 20.5-.6.8-2 3.1-3 5-1.1 1.9-2.8 4.6-3.9 6-1 1.4-4 5.5-6.6 9.1-7.5 10.5-23.2 28.7-38.9 45-18.5 19.2-15.8 24.6 11.8 23.6 16.4-.6 23.6-1.8 38-6.2 8.1-2.5 27.4-12 31.9-15.7 1.5-1.3 4-3.2 5.6-4.3 7.5-5.2 26.5-25.5 26.5-28.3 0-.5.8-1.6 1.8-2.5 1.5-1.4 8.8-15 12.4-23.2 1.7-4 4.9-15.2 6.3-22.5 1.7-8.3 2-29.7.5-32-1.9-3-45.2-6.2-58.5-4.3z"/></svg>